<?xml version="1.0" encoding="UTF-8" standalone="no"?>
<svg
   stroke="currentColor"
   fill="currentColor"
   stroke-width="0"
   viewBox="0 0 256 256"
   height="200px"
   width="200px"
   version="1.1"
   id="svg2"
   sodipodi:docname="flag.svg"
   inkscape:version="1.3.2 (091e20e, 2023-11-25, custom)"
   xmlns:inkscape="http://www.inkscape.org/namespaces/inkscape"
   xmlns:sodipodi="http://sodipodi.sourceforge.net/DTD/sodipodi-0.dtd"
   xmlns="http://www.w3.org/2000/svg"
   xmlns:svg="http://www.w3.org/2000/svg">
  <defs
     id="defs2" />
  <sodipodi:namedview
     id="namedview2"
     pagecolor="#505050"
     bordercolor="#eeeeee"
     borderopacity="1"
     inkscape:showpageshadow="0"
     inkscape:pageopacity="0"
     inkscape:pagecheckerboard="0"
     inkscape:deskcolor="#505050"
     inkscape:zoom="2.9325"
     inkscape:cx="67.178176"
     inkscape:cy="151.74766"
     inkscape:window-width="2558"
     inkscape:window-height="1360"
     inkscape:window-x="1273"
     inkscape:window-y="0"
     inkscape:window-maximized="0"
     inkscape:current-layer="svg2" />
  <rect
     style="fill:#ffb900;fill-opacity:1;stroke:none;stroke-width:24.1889;stroke-linecap:square;stroke-linejoin:round;paint-order:stroke markers fill"
     id="rect2"
     width="256"
     height="256"
     x="0"
     y="0"
     ry="37.101448" />
  <path
     d="M141.09,72l-40,88H28l40-44L28,72Z"
     opacity="0.2"
     id="path1" />
  <path
     d="M238.73,43.67A8,8,0,0,0,232,40H152a8,8,0,0,0-7.28,4.69L135.94,64H28a8,8,0,0,0-5.92,13.38L57.19,116,22.08,154.62A8,8,0,0,0,28,168h73.09a8,8,0,0,0,7.28-4.69L117.15,144h62.43l-34.86,76.69a8,8,0,1,0,14.56,6.62l80-176A8,8,0,0,0,238.73,43.67ZM95.94,152H46.08l27.84-30.62a8,8,0,0,0,0-10.76L46.08,80h82.59Zm90.91-24H124.42l32.73-72h62.43Z"
     id="path2" />
</svg>
